<?xml version="1.0" encoding="UTF-8"?>
<svg id="Calque_1" data-name="Calque 1" xmlns="http://www.w3.org/2000/svg" viewBox="0 0 1650.49 1650.49">
  <defs>
    <style>
      .cls-1 {
        stroke-width: .75px;
      }

      .cls-1, .cls-2, .cls-3, .cls-4, .cls-5 {
        fill-rule: evenodd;
      }

      .cls-1, .cls-2, .cls-5 {
        fill: #201b18;
      }

      .cls-1, .cls-3, .cls-5 {
        stroke: #201b18;
        stroke-miterlimit: 11.34;
      }

      .cls-2, .cls-6, .cls-4 {
        stroke-width: 0px;
      }

      .cls-6, .cls-3, .cls-4 {
        fill: #fff;
      }

      .cls-3, .cls-5 {
        stroke-width: .71px;
      }
    </style>
  </defs>
  <g id="Plan_1">
    <g id="_201517816" data-name=" 201517816">
      <path id="_201518488" data-name=" 201518488" class="cls-1" d="M825.24.37c455.49,0,824.87,369.38,824.87,824.87s-369.38,824.87-824.87,824.87S.37,1280.73.37,825.24,369.76.37,825.24.37h0Z"/>
      <path id="_201518128" data-name=" 201518128" class="cls-3" d="M825.24,60.19C402.79,60.19,60.19,402.79,60.19,825.24s342.6,765.05,765.05,765.05,765.05-342.6,765.05-765.05S1247.7,60.19,825.24,60.19h0Z"/>
      <path id="_201518560" data-name=" 201518560" class="cls-5" d="M962.79,91.54c405.14,75.95,672.11,466.11,596.15,871.25-75.95,405.14-466.11,672.11-871.25,596.15C282.55,1482.99,15.59,1092.83,91.55,687.69,167.5,282.55,557.65,15.59,962.8,91.54h0Z"/>
      <path id="_201517984" data-name=" 201517984" class="cls-6" d="M612.73,1423l5.15-15.3,36.6,12.33-5.15,15.3-36.6-12.33h0ZM480.38,1436.04l11.47-60.95c1.73-9.22,3.93-17.71,6.65-25.46-3.31,3.17-6.08,5.66-8.33,7.43-2.27,1.85-6.47,4.95-12.61,9.35l-50.13,35.74-24.06-15.4,60.21-94.09,16.22,10.38-36,56.26c-4.28,6.69-9.53,14.16-15.75,22.47l.64.41c6.66-6.38,13.95-12.51,21.88-18.35l58.01-42.37,11.9,7.61-14.42,72.07c-1.57,7.99-4.13,16.52-7.6,25.59l.57.37c3.95-7.49,8.74-15.65,14.36-24.44l35.47-55.42,15.98,10.23-60.22,94.09-24.26-15.52h0ZM367.76,1356.21l-53.4-50.89,12.4-13.01,39.18,37.33,19.07-20.01-36.56-34.83,12.33-12.94,36.56,34.83,20.86-21.89-41.19-39.25,12.4-13.01,55.41,52.8-77.06,80.87ZM268.2,1249.08l30.15-76.21c2.54-6.43,6.25-13.37,11.14-20.8-6.87,5.62-12.91,10.29-18.12,13.99l-54.59,38.77-11.33-15.96,91.08-64.68,14.67,20.66-29.62,75.1c-1.22,3.12-3.02,7.06-5.37,11.81-1.59,3.06-3.76,6.75-6.55,11.05,3.84-3.24,9.76-7.71,17.73-13.36l55.76-39.6,11.33,15.96-91.08,64.68-15.2-21.41h0ZM194.01,1129.58l57.35-25.99c5.44-2.47,9.19-4.42,11.23-5.87,3.05-2.1,5.57-4.8,7.56-8.09,1.99-3.29,3.02-6.98,3.12-11.02.11-4.08-.68-7.92-2.33-11.55-1.61-3.56-3.84-6.57-6.75-9.05-2.88-2.49-6.15-4.12-9.79-4.91-3.66-.79-7.19-.83-10.63-.1-2.69.53-6.88,2.08-12.56,4.66l-57.9,26.24-8.11-17.9,54.2-24.57c6.99-3.17,12.13-5.24,15.4-6.2,5.78-1.84,11.28-2.66,16.49-2.47,5.21.2,10.14,1.36,14.8,3.45,4.67,2.11,8.78,5.03,12.33,8.74,3.59,3.73,6.81,8.74,9.68,15.09,2.95,6.52,4.53,12.97,4.71,19.33.17,6.34-1.09,12.26-3.77,17.71-2.69,5.48-6.3,10.1-10.83,13.88-4.52,3.8-11.4,7.79-20.61,11.96l-55.25,25.04-8.33-18.38h0ZM149.19,1004.28l107.71-29.63,5.34,19.4-107.71,29.63s-5.34-19.4-5.34-19.4ZM137.65,894.38l16.1,12.62c-2.73,2.47-4.61,5.45-5.7,8.92-1.09,3.47-1.39,7.17-.95,11.08.68,6.09,2.61,10.65,5.85,13.64,3.21,2.99,6.83,4.25,10.84,3.8,2.6-.29,4.82-1.22,6.67-2.86,1.87-1.63,3.35-4.01,4.49-7.2.81-2.41,1.99-7.39,3.55-14.98,1.55-7.61,2.98-12.94,4.35-16.02,2.12-4.88,5.18-8.88,9.15-11.99,3.97-3.13,9.01-5.04,15.13-5.73,10.1-1.13,18.87,1.53,26.26,7.98,7.39,6.42,11.83,16.21,13.3,29.31.88,7.89.31,14.99-1.67,21.33-2.01,6.32-5.02,11.72-9.05,16.17l-16-13.19c3.53-3.11,6.03-6.71,7.52-10.81,1.52-4.07,2.02-8.32,1.54-12.67-.67-5.96-2.73-10.51-6.17-13.66s-7.2-4.49-11.26-4.04c-2.86.32-5.26,1.33-7.21,2.97-1.95,1.67-3.4,3.81-4.34,6.45-.53,1.61-1.63,6.14-3.25,13.57-1.65,7.44-2.86,12.37-3.67,14.78-1.54,4.34-3.44,7.93-5.74,10.71-2.27,2.81-5.1,5.11-8.4,6.9-3.33,1.8-7.03,2.9-11.1,3.35-8.59.96-16.29-1.11-23.03-6.23-8.78-6.59-13.93-16.8-15.47-30.62-.79-7.03-.45-13.26,1.05-18.71,1.47-5.44,3.87-10.4,7.25-14.89h0ZM123.32,854.12l3.37-73.69,17.96.82-2.47,54.06,27.62,1.26,2.31-50.44,17.85.82-2.31,50.44,30.21,1.38,2.6-56.83,17.96.82-3.5,76.46-111.59-5.1h0ZM195.53,734.22l46.48,7.88-3.35,19.76-110.14-18.66,6.05-35.73c1.3-7.67,2.77-13.67,4.38-18.02,1.62-4.4,4.09-8.32,7.36-11.75,3.3-3.45,7.27-5.86,11.91-7.26,4.65-1.39,9.74-1.62,15.29-.68,5.66.96,10.49,2.89,14.53,5.84,4.05,2.94,7.04,6.77,9.01,11.47,1.44,3.41,2.21,7.68,2.26,12.85l53.41-21.09-4,23.61-50.77,17.47-2.42,14.31h0ZM178.58,731.34l2.13-12.56c1.3-7.67,1.84-12.71,1.64-15.14-.4-3.76-1.66-6.82-3.79-9.17-2.13-2.35-4.93-3.84-8.47-4.44-3.38-.57-6.44-.13-9.18,1.31-2.75,1.47-4.87,3.77-6.39,6.94-1.14,2.31-2.15,6.28-3.11,11.94l-2.72,16.04,29.89,5.06h0ZM159.19,609.62l105.86,35.66-6.43,19.07-105.86-35.66s6.42-19.07,6.42-19.07ZM170.31,578.9l28.37-68.09,16.59,6.91-20.81,49.95,25.52,10.63,19.42-46.61,16.5,6.87-19.42,46.61,27.91,11.63,21.88-52.51,16.59,6.91-29.44,70.66-103.12-42.96h0ZM317.82,440.64l13.49,9.66-23.12,32.27-13.49-9.66,23.12-32.27ZM321.66,333.94l55.1-52.07,12.69,13.43-40.42,38.2,19.52,20.65,37.72-35.65,12.62,13.35-37.72,35.65,21.35,22.59,42.5-40.16,12.69,13.43-57.18,54.03-78.86-83.44ZM350.75,264.34l-3,34.74-12.04,11.38-4.28-27.86,19.32-18.26ZM430.27,242.42l51.59,81.35,41.37-26.24,9.9,15.6-59.09,37.47-61.49-96.96,17.72-11.24ZM500.11,200.39l69.05-31.3,7.63,16.83-50.65,22.96,11.73,25.88,47.27-21.42,7.58,16.73-47.27,21.42,12.83,28.31,53.26-24.14,7.63,16.83-71.65,32.48-47.4-104.57h0ZM703.79,144.53l-12.68,17.35c-3.67-2.7-7.76-4.43-12.29-5.19-4.51-.79-9.15-.54-13.87.67-6.42,1.65-12.1,4.85-16.99,9.64-4.92,4.79-8.19,10.69-9.82,17.67-1.62,7.01-1.49,14.26.44,21.8,1.89,7.38,5.15,13.58,9.75,18.6,4.6,5.02,10.24,8.38,16.88,10.1,6.67,1.71,13.23,1.72,19.7.06,10.7-2.74,17.94-9.19,21.76-19.34l20.47,8.04c-2.73,6.93-7.13,13.06-13.16,18.39-6.06,5.33-13.74,9.19-23.05,11.58-12.99,3.33-24.69,3.16-35.08-.51-10.39-3.65-19.06-9.71-26.02-18.21-5.88-7.11-10.01-15.28-12.38-24.52-2.8-10.91-2.78-21.47.05-31.68,2.83-10.23,7.92-18.88,15.27-25.91,7.34-7.05,16.55-12,27.61-14.84,6.86-1.76,13.2-2.41,18.98-2,5.78.41,10.89,1.49,15.29,3.25,2.76,1.01,5.81,2.71,9.14,5.05h0ZM817.68,119.3l1.41,18.42-34.7,2.66,7.36,96.06-20.54,1.57-7.36-96.05-34.29,2.63-1.41-18.42s89.53-6.86,89.53-6.86ZM870.32,187.67l-7.26,47.9-20.37-3.09,17.21-113.51,36.83,5.58c7.91,1.2,14.1,2.6,18.6,4.18,4.55,1.59,8.62,4.06,12.21,7.35,3.61,3.33,6.16,7.36,7.67,12.11,1.51,4.75,1.84,9.98.97,15.7-.88,5.83-2.79,10.83-5.74,15.04-2.95,4.21-6.84,7.35-11.62,9.46-3.48,1.54-7.86,2.41-13.16,2.56l22.63,54.5-24.34-3.69-18.86-51.86-14.75-2.24h0ZM872.96,170.2l12.94,1.96c7.91,1.2,13.1,1.66,15.59,1.41,3.86-.48,6.98-1.83,9.36-4.06,2.38-2.23,3.86-5.14,4.41-8.78.53-3.49.02-6.62-1.52-9.41-1.56-2.8-3.96-4.93-7.25-6.44-2.39-1.13-6.49-2.1-12.32-2.98l-16.54-2.51-4.67,30.81h0ZM985.13,139.56l-21.16,112.85-20.33-3.81,21.16-112.85s20.33,3.81,20.33,3.81ZM1112.09,196.86l-20.34,6.94c-1.45-4.32-3.81-8.08-7.09-11.3-3.24-3.23-7.18-5.69-11.74-7.41-6.2-2.33-12.7-2.96-19.45-1.85-6.78,1.11-12.84,4.06-18.18,8.84-5.35,4.81-9.4,10.82-12.14,18.11-2.68,7.13-3.57,14.08-2.68,20.83.88,6.75,3.58,12.74,8.03,17.96,4.48,5.22,9.85,9,16.1,11.35,10.33,3.89,19.97,2.76,28.92-3.36l12.15,18.33c-6.21,4.11-13.34,6.61-21.33,7.51-8.02.9-16.53-.35-25.53-3.73-12.55-4.72-22.03-11.57-28.44-20.54-6.42-8.95-10.04-18.89-10.87-29.84-.74-9.2.57-18.26,3.93-27.18,3.96-10.54,10.04-19.19,18.21-25.92,8.18-6.76,17.32-10.92,27.36-12.46,10.06-1.57,20.44-.34,31.13,3.68,6.63,2.49,12.2,5.6,16.69,9.24,4.5,3.65,8.07,7.47,10.66,11.44,1.68,2.42,3.21,5.55,4.59,9.38h0ZM1166.09,209.25l-54.99,100.79-18.16-9.91,54.99-100.78,18.16,9.91ZM1264.5,272.77l-10.5,15.2-28.64-19.77-54.73,79.28-16.95-11.7,54.73-79.28-28.3-19.54,10.49-15.2,73.9,51.01h0ZM1288.3,295.03l55.79,51.33-12.51,13.59-40.93-37.66-19.24,20.91,38.19,35.14-12.44,13.52-38.19-35.14-21.04,22.87,43.03,39.59-12.51,13.6-57.89-53.27,77.74-84.49h0ZM1359.75,319.2l-34.87-.57-12.19-11.21,27.49-6.21,19.56,18ZM1365.65,487.07l-13.69,9.37-22.42-32.76,13.69-9.37,22.42,32.76ZM1387.51,574.08l-28.19.37-8.62-20.94,125.15,2.4,6.6,16.04-87.39,89.32-8.86-21.52,20.17-19.84-18.87-45.82h0ZM1406.39,573.74l13.56,32.92,23.87-23.23c3.78-3.69,7.91-7.31,12.42-10.94-5.92.69-11.62,1.06-17.07,1.06l-32.78.19ZM1516.01,687.75l-55.01,32.2c-8.32,4.87-16.38,8.89-24.23,12.01,4.69.43,8.49.9,11.37,1.45,2.96.52,8.2,1.68,15.76,3.48l61.52,14.78,4.28,29.04-113.59,16.74-2.88-19.58,67.92-10.01c8.07-1.19,17.4-2.16,28.04-2.93l-.11-.77c-9.44-.87-19.11-2.38-28.99-4.6l-71.97-16.43-2.12-14.36,65.62-37.41c7.25-4.17,15.6-7.93,24.98-11.36l-.1-.69c-8.47,1.98-18.04,3.77-28.64,5.34l-66.9,9.86-2.84-19.29,113.58-16.74,4.31,29.28h0ZM1529.33,828.12l-2.14,75.78-18.47-.52,1.57-55.59-28.4-.8-1.47,51.88-18.36-.52,1.46-51.88-31.07-.88-1.65,58.45-18.47-.52,2.22-78.64,114.77,3.24h0ZM1557.96,897.9l-22.44-26.69.47-16.56,22.73,16.67-.75,26.57ZM1511.74,980.77l-79.92,26.61c-6.74,2.25-14.66,3.91-23.73,4.97,8.96,1.7,16.63,3.36,22.99,5.02l66.58,17.37-5.08,19.47-111.09-28.98,6.57-25.2,78.69-26.29c3.27-1.1,7.56-2.29,12.85-3.58,3.46-.77,7.8-1.5,13.03-2.14-5.09-.88-12.52-2.6-22.24-5.13l-68.02-17.74,5.08-19.47,111.1,28.98-6.81,26.11h0ZM1385.1,1079.7l-18.77-21.03,10.15-20.25,80.29,96.03-7.77,15.51-124.74-7.35,10.42-20.8,28.21,2.21,22.2-44.3h0ZM1397.75,1093.72l-15.95,31.83,33.19,2.78c5.26.44,10.71,1.18,16.4,2.19-4.41-4.01-8.42-8.08-12-12.19l-21.64-24.62h0ZM1338.77,1291.1l-3.15-21.47c10.48-1.21,19.23-6.25,26.32-15.13,4.64-5.81,7.65-12.3,9.01-19.48,1.36-7.19.69-14.03-1.99-20.51-2.7-6.5-7.07-12.16-13.17-17.04-6.12-4.89-12.79-7.98-20.01-9.26-7.21-1.28-14.14-.47-20.8,2.48-6.65,2.93-12.53,7.57-17.62,13.95-2.59,3.24-4.84,6.79-6.74,10.64-1.9,3.89-3.25,7.57-4.05,11.11l20.58,16.44,14.12-17.68,14.43,11.53-26.73,33.46-45.49-36.34c3.15-15.51,9.64-29.42,19.46-41.71,8.93-11.17,18.58-18.56,28.94-22.11,10.37-3.57,20.51-4.19,30.49-1.88,9.94,2.32,18.75,6.56,26.45,12.72,8.63,6.89,14.99,15.28,19.11,25.19,4.08,9.91,5.19,20.21,3.27,30.91-1.89,10.69-6.71,20.87-14.43,30.53-5.9,7.39-12.39,13.13-19.4,17.21-5.35,3.07-11.55,5.22-18.59,6.45h0ZM1314.66,1331.04l-56,51.1-12.45-13.65,41.08-37.49-19.15-20.99-38.34,34.98-12.38-13.57,38.34-34.98-20.95-22.96-43.19,39.41-12.45-13.65,58.11-53.03,77.39,84.81h0ZM1190.04,1427.3l-49.07-40.68c-7.43-6.15-13.96-12.35-19.57-18.66,1.2,4.55,2.06,8.29,2.52,11.19.53,2.96,1.23,8.28,2.12,16l7.15,62.87-25.83,13.95-54.57-101.01,17.42-9.41,32.63,60.4c3.88,7.18,7.98,15.62,12.35,25.35l.69-.37c-2.41-9.17-4.29-18.77-5.59-28.82l-9.18-73.25,12.77-6.9,57.6,48.87c6.4,5.39,12.79,11.95,19.21,19.59l.62-.33c-4.76-7.28-9.72-15.66-14.81-25.09l-32.15-59.5,17.16-9.27,54.57,101.01-26.04,14.07ZM1057.49,1489.68l-72.74,21.38-5.21-17.72,53.36-15.68-8.01-27.26-49.79,14.64-5.18-17.62,49.79-14.64-8.77-29.82-56.1,16.49-5.21-17.73,75.47-22.19,32.38,110.15h0ZM912.43,1523.64l-52.34-66c-4.42-5.56-8.69-12.44-12.79-20.6,1.47,9.01,2.53,16.78,3.14,23.32l6.45,68.51-20.03,1.89-10.77-114.31,25.93-2.44,51.62,64.96c2.15,2.69,4.73,6.32,7.76,10.85,1.9,2.99,4.08,6.81,6.47,11.51-.91-5.08-1.84-12.65-2.78-22.65l-6.59-69.98,20.03-1.89,10.77,114.31-26.87,2.53h0ZM706.24,1517.57l2.45-18.31,34.49,4.61,12.77-95.49,20.42,2.73-12.77,95.49,34.09,4.56-2.45,18.31-89-11.9h0Z"/>
      <path id="_201518296" data-name=" 201518296" class="cls-3" d="M825.24,287.09c297.17,0,538.16,240.99,538.16,538.16s-240.99,538.16-538.16,538.16-538.16-240.99-538.16-538.16,240.99-538.16,538.16-538.16h0ZM825.24,305.66c286.91,0,519.59,232.68,519.59,519.59s-232.68,519.59-519.59,519.59-519.59-232.68-519.59-519.59,232.68-519.59,519.59-519.59h0Z"/>
      <path id="_201517912" data-name=" 201517912" class="cls-3" d="M825.24,324.23c276.66,0,501.02,224.36,501.02,501.02s-224.36,501.02-501.02,501.02-501.02-224.36-501.02-501.02,224.36-501.02,501.02-501.02h0Z"/>
      <g>
        <path id="_201517192" data-name=" 201517192" class="cls-3" d="M1326.26,825.24c0,276.66-224.36,501.02-501.02,501.02s-501.02-224.36-501.02-501.02h1002.04Z"/>
        <path id="_201517696" data-name=" 201517696" class="cls-5" d="M1326.26,825.24c0-276.66-224.36-501.02-501.02-501.02s-501.02,224.36-501.02,501.02h1002.04Z"/>
      </g>
      <path id="_201517360" data-name=" 201517360" class="cls-4" d="M609.56,798.11l-1.56.18-1.58.1-1.53.03h-85.65l-1.49-.03-1.52-.08-1.5-.14-1.48-.2-1.46-.26-1.43-.31-1.4-.37-1.38-.43-1.35-.49-1.32-.55-1.29-.62-1.25-.67-1.22-.73-1.18-.79-1.14-.85-1.1-.9-1.05-.95-.99-1-.94-1.04-.87-1.09-.81-1.13-.75-1.17-.67-1.21-.6-1.24-.53-1.28-.46-1.31-.38-1.34-.31-1.36-.24-1.38-.17-1.4-.1-1.41-.03-1.36v-80.08l5.5-1.5,2.82-.77.94-.26,1.89-.51.94-.25.94-.26,1.89-.51.94-.25.94-.25.95-.25.95-.25.94-.25.94-.25.95-.25.95-.25.94-.25.95-.25.95-.25.95-.25.95-.25.95-.25,1.9-.49.95-.24.95-.24.95-.24.96-.24,8.64-2.16v80.43l.34-.02,2.29-.13,2.29-.13,2.29-.13,2.3-.12,2.29-.12,2.29-.12,2.29-.12,2.29-.12,2.3-.12,2.29-.12,2.3-.12,2.3-.12,2.29-.12,2.29-.12,2.3-.12,2.3-.12,2.3-.12,2.3-.12,4.6-.23,4.59-.22,2.3-.11,2.3-.11,4.6-.22.98-.05v-79.79l-1.31-1.44-1.46-1.59-1.46-1.59-1.46-1.58-1.45-1.57-1.45-1.57-1.45-1.56-1.45-1.55-1.45-1.54-1.45-1.53-1.45-1.53-1.45-1.52-1.45-1.51-1.45-1.5-1.45-1.49-1.45-1.48-1.45-1.47-1.45-1.46-1.45-1.45-1.45-1.44-1.45-1.43-1.45-1.42-1.45-1.41-1.45-1.39-1.46-1.38-1.46-1.37-1.46-1.36-1.46-1.34-1.46-1.33-1.46-1.32-1.47-1.3-1.4-1.23-1.4-1.21-1.4-1.2-1.41-1.18-1.41-1.17-1.41-1.16-1.42-1.14-1.42-1.13-1.43-1.12-1.43-1.11-1.43-1.09-1.43-1.08-1.43-1.07-1.43-1.06-1.44-1.04-1.44-1.03-1.44-1.02-1.44-1-1.44-.99-1.44-.98-1.45-.97-1.45-.96-1.45-.95-1.45-.93-1.45-.92-1.45-.91-1.45-.9-1.45-.89-1.45-.88-1.45-.87-1.45-.86-1.52-.89-1.36-.84-1.37-.95-1.31-1.03-1.24-1.11-1.16-1.19-1.08-1.27-.99-1.35-.89-1.43-.79-1.5-.68-1.56-.57-1.62-.46-1.67-.35-1.72-.25-1.76-.15-1.8-.05-1.76v-60.93s.03-.72.03-.72l.04-.72.06-.72.07-.73.09-.73.1-.73.12-.73.13-.73.15-.73.16-.74.18-.74.19-.74.21-.74.22-.75.24-.74.25-.74.26-.75.28-.75.29-.75.3-.76.32-.76.33-.76.35-.75.36-.76.38-.77.39-.77.4-.77.41-.77.43-.78.44-.78.45-.77.46-.77.47-.77.47-.77.48-.76.49-.76.5-.76.51-.76.52-.75.52-.74.53-.74.54-.74.55-.73.56-.72.57-.72.58-.72.59-.7.59-.7.61-.7.62-.69.63-.68.63-.67.65-.67.66-.66.67-.65.68-.64.69-.64.7-.63.71-.62.72-.61.73-.6.75-.59.74-.57,2.68-2.02,2.68-1.99,2.68-1.98,2.68-1.96,2.68-1.95,2.68-1.93,2.68-1.92,2.69-1.9,2.69-1.88,2.69-1.87,2.69-1.85,2.69-1.84,2.69-1.82,2.69-1.8,2.7-1.79,2.7-1.77,2.7-1.75,2.7-1.74,2.7-1.72,2.7-1.7,2.7-1.69,2.7-1.67,2.7-1.65,2.71-1.64,2.7-1.62,2.71-1.6,2.71-1.59,2.71-1.57,2.71-1.55,2.71-1.54,2.71-1.52,2.76-1.53,1.49-.78,1.54-.72,1.53-.63,1.53-.54,1.53-.45,1.53-.35,1.54-.25,1.54-.14,1.53-.03,1.52.09,1.51.21,1.48.33,1.45.45,1.4.58,1.34.69,1.28.8,1.21.9,1.13,1,1.04,1.08.95,1.16.86,1.23.77,1.29.67,1.34.59,1.39.5,1.43.42,1.47.35,1.5.28,1.54.21,1.58.15,1.61.09,1.65.03,1.63v94.07l-5.28,1.65-.93.3-.93.3-.93.3-.94.3-.93.3-.93.31-1.88.62-.93.31-.93.31-.94.32-.94.32-.94.32-.94.32-.94.32-.94.32-.93.32-.94.32-.94.33-.94.33-1.87.66-.94.33-.94.33-1.88.66-.94.33-.94.33-1.87.66-9.2,3.27v-81.59l-2.27,1.26-2.28,1.27-2.28,1.28-2.28,1.3-2.28,1.3-2.28,1.31-2.28,1.32-2.28,1.33-2.28,1.34-2.28,1.35-2.28,1.36-2.28,1.37-2.28,1.38-2.28,1.39-2.28,1.4-2.28,1.41-2.28,1.42-2.28,1.43-2.28,1.44-2.28,1.45-2.28,1.46-2.27,1.47-2.28,1.48-2.27,1.49-2.28,1.5-2.27,1.51-1.82,1.21v61.17l.16.11,1.49.99,1.49,1,1.5,1.01,1.5,1.02,1.5,1.02,1.5,1.04,1.5,1.04,1.5,1.06,1.51,1.07,1.51,1.08,1.5,1.09,1.51,1.1,1.5,1.11,1.51,1.12,1.5,1.14,1.5,1.15,1.5,1.16,1.5,1.17,1.5,1.19,1.5,1.2,1.5,1.21,1.5,1.23,1.49,1.24,1.49,1.25,1.49,1.27,1.49,1.28,1.48,1.3,1.48,1.31,1.47,1.33,1.47,1.34,1.53,1.41,1.52,1.42,1.52,1.43,1.51,1.44,1.51,1.45,1.51,1.46,1.5,1.47,1.5,1.48,1.5,1.49,1.5,1.5,1.5,1.51,1.5,1.52,1.49,1.53,1.49,1.54,1.49,1.55,1.49,1.56,1.48,1.56,1.48,1.57,1.48,1.58,1.48,1.59,1.48,1.6,1.48,1.61,1.48,1.61,1.48,1.62,1.47,1.63,1.47,1.64,1.47,1.64,1.47,1.65,1.47,1.66,1.47,1.67,1.47,1.67,1.49,1.7.67.78.67.82.64.84.62.85.6.86.57.87.55.89.53.9.51.91.48.92.46.93.44.94.41.95.39.96.37.97.35.99.32,1,.3,1,.28,1.01.26,1.02.23,1.02.21,1.03.19,1.04.17,1.05.15,1.06.13,1.06.11,1.06.09,1.08.07,1.08.05,1.09.03,1.09v1.08s.01,89.08.01,89.08l-.03,1.65-.09,1.67-.15,1.65-.21,1.63-.27,1.6-.33,1.58-.4,1.54-.46,1.52-.53,1.49-.6,1.45-.67,1.42-.74,1.39-.81,1.34-.87,1.3-.94,1.26-1.01,1.21-1.07,1.16-1.11,1.09-1.16,1.02-1.21.95-1.26.88-1.3.8-1.34.72-1.38.65-1.43.57-1.45.49-1.48.41-1.51.33-1.54.25h0ZM750.03,705.07l-2.11.07-2.1.07-2.11.08-2.11.08-2.1.08-2.1.08-4.21.17-2.1.09-2.1.09-2.1.09-2.11.09-2.1.09-2.1.09-2.1.09-2.11.1-1.14.05-.08.62-.75,5.76-.37,2.88-.37,2.88-.75,5.75-.37,2.87-.37,2.87-.37,2.87-.37,2.87-.75,5.74-.37,2.87-.37,2.87-.75,5.73-.75,5.72-.75,5.72-.75,5.72-.75,5.71-.37,2.85-.37,2.86-.75,5.71-1.45,11.09h-40.68v-7.68l1.01-6.77.95-6.32.95-6.32.95-6.33,1.77-11.87,1.07-7.15.95-6.35.95-6.36.95-6.36,1.88-12.65.96-6.48.95-6.39,1.89-12.79.94-6.4.95-6.41.95-6.41.98-6.66,1.85-12.61.95-6.44.94-6.44,1.89-12.9,1.86-12.73.97-6.66.94-6.48.94-6.48.94-6.48.95-6.56.95-6.57.95-6.57.95-6.57.95-6.58.95-6.58.95-6.59.95-6.59.95-6.6.95-6.6.95-6.6.95-6.61.95-6.61.95-6.62.94-6.62.95-6.62.94-6.63.95-6.63.95-6.63.95-6.64.95-6.64.95-6.64.95-6.65.95-6.65.95-6.65.95-6.66.95-6.66.95-6.66.95-6.67.95-6.67.95-6.67,1.58-11.08,5.3-.98.93-.17.94-.17.94-.17.93-.17.94-.17.94-.17.93-.16.93-.16.94-.16.94-.16.94-.16.93-.16.94-.16.94-.16.93-.15.93-.15.94-.15.94-.15.94-.15.94-.15.94-.15.94-.15.94-.14.94-.14.94-.14.94-.14.94-.14.94-.14.94-.14.94-.14,7.05-1,1.82,12.62.94,6.52.94,6.52.94,6.52.94,6.52.94,6.53.94,6.53.94,6.54.94,6.54.94,6.54.94,6.54.94,6.55.94,6.55.94,6.55.94,6.55.94,6.56.94,6.56.94,6.56.94,6.57.94,6.57.94,6.57.94,6.57.94,6.58.94,6.58.94,6.58.94,6.58.94,6.59.94,6.59.94,6.59.94,6.59.94,6.6.94,6.6.94,6.63.94,6.63.94,6.63.94,6.64.94,6.64.94,6.64.94,6.64.94,6.64.94,6.64.94,6.64.94,6.65.94,6.65.94,6.65.94,6.65.94,6.65.94,6.65.94,6.65.94,6.65.94,6.65.94,6.66.94,6.65.95,6.66.94,6.66.95,6.66.94,6.66.94,6.66.95,6.66,1.89,13.32,1.89,13.32,1.95,13.72h-42.57l-1.08-8.35-.76-5.89-.76-5.89-.75-5.89-.38-2.94-.38-2.95-.38-2.94-.38-2.95-.37-2.94-.38-2.94-.75-5.89-.47-3.69-.66-5.14-.37-2.94-.37-2.94-.38-2.94-.75-5.88-.37-2.94-.37-2.94-1.91-15.02-.74.02-2.11.06-2.11.06-2.11.06-2.11.06-2.11.07-2.11.07-2.11.07-2.11.07-2.11.07-2.11.07h0ZM728.72,601.24l-.47,3.56-.47,3.56-.47,3.56-.47,3.55-.47,3.56-.47,3.55-.47,3.55-.47,3.55-.47,3.55-.47,3.55-.47,3.55-.47,3.55-.47,3.55-.47,3.55-.47,3.55-.47,3.54-.42,3.18,1.85-.11,1.87-.11,1.87-.11,3.74-.21,1.87-.1,1.87-.1,3.74-.2,1.87-.1,1.87-.09,3.74-.18,1.87-.09,1.87-.09,1.87-.09,1.87-.09,1.87-.08,1.87-.08,1.87-.08,1.87-.08,1.87-.08,1.87-.08,1.87-.07.69-.03-.05-.39-.47-3.56-.55-4.18-1.75-13.35-.5-3.82-.47-3.56-.83-6.28-.58-4.38-.47-3.55-.47-3.55-.47-3.55-.47-3.55-.94-7.1-.47-3.55-.47-3.55-.47-3.55-.47-3.55-.47-3.54-.47-3.54-.46-3.54-.46-3.54-.46-3.54-.46-3.54-.46-3.54-.46-3.54-.46-3.54-.88-6.77-.5-3.79-.46-3.52-.46-3.52-.46-3.52-.46-3.52-.46-3.52-.47-3.52-.46-3.52-.47-3.52-.47-3.52-.47-3.52-.93-7.03-.47-3.51-.47-3.52-.47-3.51-.32-2.37-.49,3.81-.47,3.6-.47,3.6-.94,7.2-.47,3.6-.47,3.6-.47,3.6-.47,3.6-.47,3.59-.47,3.6-.47,3.59-.47,3.59-.47,3.59-.47,3.59-.47,3.59-.47,3.59-.47,3.59-.47,3.59-.47,3.57-.47,3.57-.47,3.56-.47,3.57-.47,3.56-.47,3.56-.93,7.13-.47,3.56-.47,3.56-.47,3.56-.47,3.56-.47,3.56h0ZM934.42,679.85l-.99-3.54-.99-3.54-.99-3.54-.99-3.54-.99-3.54-1.98-7.09-.99-3.55-.99-3.55-.99-3.55-.99-3.55-.99-3.56-.99-3.56-.99-3.56-.99-3.56-.99-3.56-.99-3.57-.99-3.57-.99-3.57-.99-3.57-.99-3.57-.99-3.57-.99-3.57-.99-3.58-.99-3.58-.99-3.58-.99-3.58-.98-3.59-.98-3.59-.98-3.59-1.65-6.05,1.51-2.67.26-.46.26-.46.52-.9.26-.45.26-.45.26-.44.26-.44.26-.45.26-.44.26-.43.26-.44.26-.44.26-.44,2.28-3.89,5.66.59,1.69.18,1.69.18,1.69.19,1.69.19,1.69.19,1.69.19,1.69.2,1.69.2,1.69.2,1.69.21,1.69.21,1.69.21,1.7.21,1.7.22,1.69.22,1.69.22,1.69.23,1.69.23,1.69.23,1.69.23,1.7.24,1.69.24,1.69.24,1.69.24,1.7.25,1.7.25,1.33.2v-137.35l-.11-.03-2.41-.57-2.41-.57-2.41-.56-2.4-.55-2.41-.54-2.41-.53-2.41-.53-2.4-.52-2.4-.51-2.41-.5-2.41-.49-2.4-.48-2.41-.48-2.4-.47-2.41-.46-2.4-.45-2.41-.44-2.4-.44-2.4-.43-2.4-.42-2.4-.41-2.4-.4-2.4-.4-2.4-.39-2.4-.38-2.4-.37-2.4-.36-.15-.02v387.95h-42.57v-437.78l10.38,1.05,3.58.38,3.58.4,3.58.41,3.58.43,3.59.45,3.59.46,3.59.48,3.59.5,3.59.52,3.59.54,3.59.56,3.59.58,3.59.6,3.59.61,3.59.64,3.59.65,3.59.68,3.59.7,3.59.72,3.59.74,3.59.76,3.59.78,3.59.8,3.59.83,3.59.85,3.59.87,3.59.89,3.59.92,3.59.94,3.59.97,3.66,1.01,1.59.49,1.62.59,1.57.67,1.53.75,1.48.83,1.43.9,1.38.96,1.33,1.03,1.28,1.09,1.23,1.14,1.19,1.2,1.14,1.25,1.09,1.29,1.05,1.34,1.01,1.38.96,1.41.48.75.46.74.44.74.43.75.42.76.4.77.38.77.37.78.36.78.34.79.33.8.31.8.3.81.28.81.27.81.25.82.24.83.22.83.21.83.19.84.18.85.16.84.15.85.13.86.11.86.1.86.08.86.07.87.05.87.04.87.02.87v.85s0,150.2,0,150.2l-.04,1.93-.11,1.94-.19,1.89-.27,1.84-.35,1.79-.44,1.74-.53,1.69-.62,1.64-.72,1.58-.81,1.52-.91,1.45-1.01,1.38-1.1,1.3-1.19,1.21-1.28,1.13-1.36,1.03-1.44.93-1.5.83-1.56.73-1.62.64-1.68.54-1.72.45-1.77.36-1.81.28-1.86.2-1.9.12-1.95.05-2-.03-2.05-.1-2.09-.17-2.15-.24-2.17-.3-.47-.07-.45-.07-.48-.08-.51-.09-.53-.09-.55-.1-.58-.1-.6-.11-.63-.12-.65-.12-.68-.13-.7-.13-.72-.14-.74-.15-.76-.15.02.05.91,3.16.91,3.16.92,3.16.91,3.16.91,3.16.91,3.15.92,3.16.91,3.15.92,3.15.91,3.15,1.1,3.78,1.65,5.66.91,3.14.91,3.14.91,3.14.91,3.14.91,3.13.91,3.13.91,3.13.92,3.13,1.57,5.36,1.17,4.01.91,3.12.91,3.12.91,3.11.91,3.11.91,3.11.9,3.06.9,3.06.9,3.06.91,3.06.91,3.05.91,3.05.91,3.05.91,3.05.91,3.04.91,3.04.91,3.04.91,3.03.91,3.03.91,3.03.91,3.03.91,3.02.91,3.02.91,3.02.91,3.01.91,3.01.91,3.01.91,3,.91,3,.91,3,.91,3,.91,2.99.91,2.99.91,2.99.91,2.99.91,2.98.91,2.98,3.35,10.97h-44.66l-2.29-7.87-.99-3.41-.99-3.42-.99-3.42-.99-3.42-.99-3.42-.99-3.43-.99-3.43-.99-3.43-.99-3.44-.99-3.44-.99-3.44-.99-3.45-.99-3.45-.99-3.45-.99-3.45-.99-3.46-.99-3.46-.99-3.47-.99-3.47-.99-3.47-.99-3.47-.99-3.48-.99-3.48-.99-3.48-.99-3.48-.99-3.49-.98-3.49-.98-3.49-.98-3.49-.98-3.5-.98-3.5-.99-3.54h0ZM1054.77,415.69l.95.52.95.52.95.52.95.52.95.52,1.89,1.05.95.53.95.53.95.53.95.53.95.54.95.54.95.54.95.54.95.54.95.55.95.55.95.55.95.55.95.55.95.55.95.55.95.56.95.56,1.9,1.12.95.56.95.57,3.97,2.37v324.76l1.49.08,4.91.26,2.45.13,2.45.13,4.91.27,2.45.14,2.45.14,2.45.14,2.45.14,2.46.14,2.46.14,2.46.14,2.45.14,2.46.14,2.46.14,2.46.15,2.46.15,2.46.15,2.46.15,2.46.15,2.46.15,2.46.15,2.46.15,2.46.16,2.46.16,4.92.32,8.25.54v35.26h-121v-388.72l10.08,5.46.95.52h0Z"/>
      <path id="_201517504" data-name=" 201517504" class="cls-2" d="M609,1246.3l-.94-.5-.94-.5-.94-.51-.94-.51-.94-.51-.94-.51-.94-.51-.94-.51-.94-.52-.94-.52-.94-.52-.94-.52-.94-.52-.94-.52-.94-.53-.94-.53-.94-.53-.94-.53-.94-.53-.94-.53-4.06-2.31v-186.83l-.84-.28-2.54-.86-2.54-.86-2.54-.87-2.54-.88-2.54-.89-2.54-.89-2.54-.9-2.54-.91-2.54-.92-2.54-.93-2.54-.93-2.54-.94-2.54-.95-2.54-.96-2.54-.97-2.54-.97-2.54-.98-2.54-.99-2.54-1-2.54-1-2.54-1.01-2.54-1.02-2.54-1.03-2.54-1.03-2.54-1.04-2.54-1.05-1.53-.64v163.77l-11.2-9.79-.94-.83-.94-.83-.94-.83-.94-.84-.94-.84-.94-.85-.94-.85-.94-.85-.94-.85-.94-.85-.94-.86-.94-.86-.94-.86-.94-.86-.94-.86-1.87-1.73-.93-.87-.93-.87-.93-.87-.93-.87-1.86-1.74-.93-.87-.93-.87-.93-.87-.93-.87-.93-.87-.93-.87-.93-.87-2.87-2.7v-313.57h42.13v147.84l.92.33,2.51.89,2.51.88,2.51.88,2.51.87,2.51.86,2.51.86,2.51.85,2.51.85,2.51.84,2.51.83,2.51.83,2.51.82,2.51.81,2.51.81,2.51.8,2.51.79,2.51.79,2.51.78,2.51.77,2.51.77,2.51.76,2.51.76,2.51.75,2.51.74,2.51.73,2.51.73,2.21.63v-169.85h42.2v423.15l-9.91-5-.94-.48-.94-.48-.95-.48-.94-.49-.94-.49-.95-.49-.94-.49-.94-.5-.94-.5-.94-.5h0ZM739.92,1290.26l-3.47-.65-3.47-.67-3.47-.69-3.47-.71-3.47-.73-3.47-.75-3.47-.77-3.47-.79-3.47-.81-3.47-.83-3.47-.84-3.47-.87-3.47-.88-3.47-.91-3.47-.93-3.47-.95-3.47-.96-3.47-.99-7.92-2.29v-440.23h121.25v47.95l-8.72-.08-2.48-.02-2.48-.02-2.48-.02-2.48-.03-2.48-.02-2.48-.03-2.48-.03-2.48-.03-2.47-.03-2.48-.03-2.48-.03-2.48-.03-2.47-.03-2.47-.03-2.47-.03-2.47-.03-2.47-.03-2.47-.03-2.47-.03-2.47-.04-2.47-.04-2.47-.04-2.47-.04-2.47-.04-2.47-.04-2.47-.04-2.47-.04-2.47-.04-1.12-.02v151.66l1.16.12,2.24.22,2.24.22,2.24.21,2.24.21,2.24.21,2.24.2,2.24.2,2.24.2,2.24.19,2.24.19,2.24.19,2.24.18,2.24.18,2.24.18,2.24.17,2.25.17,2.24.17,2.24.16,2.24.16,2.24.15,2.24.15,2.24.15,2.24.15,2.24.14,2.25.14,2.24.13,2.25.13,2.24.13,8.1.45v48.61l-8.85-.58-2.26-.15-2.27-.16-2.26-.16-2.27-.17-2.26-.17-2.26-.17-2.26-.18-2.26-.18-2.26-.18-2.26-.19-2.26-.19-2.26-.2-2.26-.2-2.26-.21-2.26-.21-2.26-.22-2.26-.22-2.26-.22-2.26-.23-2.26-.23-2.26-.23-2.26-.24-2.26-.24-2.26-.25-2.26-.25-2.26-.26-2.26-.26-2.09-.24v158.78l2.56.52,2.49.5,2.49.49,2.49.48,2.49.47,2.49.46,2.49.45,2.49.44,2.49.43,2.49.42,2.49.41,2.49.41,2.49.4,2.49.39,2.49.38,2.49.37,2.49.36,2.49.35,2.49.34,2.49.33,2.49.32,2.49.31,2.49.3,2.49.29,2.49.28,2.49.27,2.49.26,2.49.25,2.49.24,8.12.76v48.03l-10.37-1.22-3.47-.43-3.47-.44-3.47-.46-3.47-.48-3.47-.5-3.47-.52-3.47-.54-3.48-.56-3.47-.58-3.47-.59-3.47-.61-3.47-.63h0ZM961.28,1272.77l-1.19,1.22-1.24,1.16-1.29,1.09-1.34,1.03-1.38.95-1.43.88-1.47.8-1.52.72-1.56.63-1.6.54-1.56.43-2.86.69-2.78.66-2.78.65-2.78.63-2.78.62-2.78.61-2.78.59-2.78.58-2.78.57-2.78.56-2.78.54-2.78.53-2.78.52-2.78.5-2.78.49-2.78.48-2.78.46-2.78.45-2.78.44-2.78.42-2.78.41-2.78.4-2.78.38-2.78.37-2.78.36-2.78.34-2.78.33-2.78.32-2.78.3-2.78.29-2.78.27-2.87.27-1.58.1h-1.64l-1.63-.11-1.61-.21-1.59-.32-1.55-.43-1.52-.53-1.48-.64-1.43-.74-1.38-.84-1.33-.93-1.27-1.02-1.21-1.1-1.15-1.17-1.1-1.25-1.02-1.29-.52-.71-.48-.69-.46-.7-.45-.71-.43-.72-.42-.74-.4-.75-.38-.75-.37-.77-.35-.77-.33-.79-.32-.8-.3-.81-.29-.82-.27-.83-.25-.83-.24-.84-.22-.85-.2-.86-.19-.87-.17-.88-.16-.89-.14-.9-.12-.9-.11-.91-.1-.93-.08-.93-.07-.94-.05-.95-.04-.96-.02-.96v-.95s0-388.74,0-388.74v-.95s.03-.96.03-.96l.04-.95.05-.94.07-.94.08-.93.1-.92.11-.91.13-.91.14-.9.16-.9.17-.88.19-.87.2-.87.22-.86.24-.84.25-.83.27-.83.29-.83.3-.81.32-.8.34-.8.35-.78.37-.77.38-.76.4-.75.42-.74.43-.73.45-.72.47-.71.48-.7.52-.71,1.01-1.29,1.08-1.25,1.13-1.19,1.18-1.11,1.24-1.04,1.29-.96,1.34-.88,1.39-.79,1.43-.7,1.48-.61,1.51-.51,1.54-.42,1.57-.33,1.6-.23,1.61-.14,1.55-.04h88.27l1.53.04,1.6.13,1.58.22,1.56.31,1.53.39,1.5.49,1.47.58,1.43.66,1.39.75,1.34.83,1.3.91,1.25.99,1.19,1.07,1.14,1.14,1.09,1.21,1.02,1.25.52.68.48.67.46.67.45.69.43.7.42.71.4.72.38.73.37.74.35.75.33.76.32.77.3.78.29.79.27.8.25.81.24.81.22.83.2.83.19.84.17.85.16.86.14.86.13.87.11.88.1.89.08.89.07.9.05.91.04.91.02.92v.9s0,105.62,0,105.62l-6.52.64-.94.09-.94.09-.94.09-.94.09-.94.09-.94.09-.94.09-.94.09-.94.09-.94.09-.94.09-.94.09-.94.09-.94.09-.94.09-.94.08-.94.08-.94.08-.94.08-.94.08-.94.08-.94.08-.94.08-.94.08-.94.08-.93.08-.94.08-.94.08-.94.08-.93.08-7.63.64v-99.1l-3.21.05-2.38.04-2.38.04-2.38.04-2.37.04-2.38.04-2.37.03-2.38.03-2.38.03-2.38.03-2.37.03-2.37.03-2.37.03-4.75.06-2.37.03-2.37.03-2.37.03-2.37.03-2.37.03-2.37.03-2.37.02-2.37.03-2.37.02-2.37.02-2.37.02h-.98v367.51l.24-.03,2.35-.26,2.35-.27,2.35-.28,2.35-.29,2.35-.29,2.35-.31,2.35-.31,2.35-.32,2.35-.33,2.35-.34,2.35-.35,2.35-.35,2.35-.36,2.35-.37,2.35-.38,2.35-.39,2.35-.4,2.35-.41,2.36-.41,2.35-.42,2.35-.43,2.35-.44,2.36-.44,2.35-.45,2.35-.46,2.35-.47,2.16-.44v-139.46l-.83.11-1.13.16-1.13.15-1.13.15-1.13.15-1.13.15-1.13.14-1.13.14-1.13.14-1.13.14-1.13.14-1.12.14-2.25.27-1.13.13-1.13.13-1.12.13-1.13.13-1.13.13-1.12.13-1.12.13-1.12.13-1.13.12-1.12.12-1.12.12-7.97.86v-46.74l7.62-.76,2.05-.21,2.05-.21,2.05-.21,2.05-.22,2.04-.22,2.05-.23,2.04-.23,2.04-.23,2.05-.24,2.05-.24,2.04-.24,2.04-.25,2.05-.25,2.05-.25,2.04-.25,2.04-.26,2.05-.26,2.04-.27,2.04-.27,2.04-.27,2.05-.28,2.05-.28,2.04-.28,2.04-.29,2.05-.29,2.05-.29,2.04-.3,2.05-.3,2.05-.3,2.05-.31,9.17-1.39v192.97s-.03.93-.03.93l-.04.92-.05.92-.07.92-.08.91-.1.91-.11.9-.13.9-.14.89-.15.89-.17.88-.18.87-.2.87-.21.86-.23.86-.25.85-.26.84-.27.84-.29.83-.3.83-.32.82-.33.81-.35.81-.36.8-.37.79-.39.78-.4.79-.42.78-.43.76-.45.76-.47.78-.96,1.48-1.01,1.44-1.05,1.39-1.1,1.34-1.14,1.28h0ZM1168.91,1122.41v.7s-.03.74-.03.74l-.04.75-.06.75-.07.75-.09.75-.11.76-.12.76-.14.76-.15.76-.17.76-.18.77-.2.77-.21.76-.22.77-.24.78-.25.78-.26.78-.28.78-.29.78-.3.79-.31.79-.33.79-.34.8-.36.8-.37.8-.38.8-.39.8-.41.81-.42.81-.43.81-.44.82-.46.82-.46.81-.46.81-.47.81-.48.81-.49.8-.49.79-.5.8-.51.8-.52.79-.53.78-.54.78-.55.78-.55.77-.56.76-.57.76-.58.75-.59.74-.6.74-.61.74-.62.73-.63.72-.64.71-.65.71-.67.7-.67.69-.68.68-.7.67-.71.66-.72.65-.73.64-.73.62-2.96,2.48-2.94,2.44-2.94,2.42-2.94,2.4-2.95,2.38-2.95,2.36-2.95,2.34-2.95,2.32-2.95,2.3-2.95,2.28-2.96,2.26-2.96,2.24-2.96,2.22-2.96,2.19-2.96,2.17-2.96,2.15-2.96,2.13-2.96,2.11-2.96,2.09-2.96,2.07-2.97,2.05-2.96,2.02-2.97,2-2.97,1.98-2.97,1.96-2.97,1.94-2.97,1.92-2.97,1.9-2.97,1.87-2.97,1.85-2.97,1.83-3.02,1.84-1.46.84-1.52.78-1.52.68-1.52.59-1.53.49-1.54.39-1.54.27-1.55.16-1.55.04-1.54-.08-1.52-.21-1.5-.34-1.46-.47-1.41-.59-1.35-.71-1.28-.82-1.21-.93-1.13-1.02-1.05-1.11-.96-1.18-.86-1.25-.77-1.32-.68-1.37-.59-1.42-.51-1.47-.43-1.51-.35-1.56-.28-1.6-.22-1.64-.15-1.68-.09-1.73-.03-1.72v-350.81s.03-.88.03-.88l.04-.88.05-.86.07-.86.08-.86.1-.85.11-.84.13-.83.15-.84.16-.83.18-.81.19-.81.21-.8.22-.79.24-.79.26-.78.27-.77.29-.76.31-.75.33-.75.34-.74.36-.73.38-.72.39-.7.41-.7.43-.69.44-.67.46-.67.48-.66.49-.64.53-.66,1.02-1.18,1.1-1.14,1.15-1.08,1.2-1,1.24-.93,1.29-.86,1.34-.78,1.38-.7,1.41-.62,1.45-.54,1.49-.45,1.51-.36,1.53-.28,1.56-.2,1.58-.12,1.52-.04h94.03l1.47.03,1.51.09,1.49.15,1.47.21,1.44.27,1.42.34,1.4.4,1.37.46,1.34.52,1.31.58,1.27.64,1.24.7,1.2.76,1.16.82,1.12.87,1.09.93,1.02.96.97,1.01.92,1.05.86,1.1.8,1.14.74,1.18.67,1.22.61,1.26.54,1.29.46,1.33.39,1.35.32,1.38.25,1.41.18,1.42.11,1.45.03,1.39v261.65h0ZM1079.34,874.75l-2.57.14-2.57.14-2.57.14-2.57.13-2.57.13-2.57.13-2.57.13-2.57.13-1.82.09v313.37l.88-.53,2.54-1.54,2.54-1.55,2.54-1.57,2.54-1.58,2.54-1.6,2.55-1.61,2.55-1.62,2.54-1.64,2.55-1.65,2.55-1.67,2.55-1.68,2.54-1.69,2.54-1.71,2.55-1.73,2.55-1.74,2.55-1.75,2.55-1.77,2.55-1.78,2.55-1.8,2.55-1.81,2.55-1.82,2.55-1.84,2.55-1.85,2.55-1.86,2.55-1.88,2.55-1.89,2.55-1.9.09-.07v-270.19l-1.12.07-2.57.16-2.57.16-2.57.16-2.57.16-2.57.16-5.14.31-5.14.3-2.57.15-2.57.15-2.57.15-2.57.15-2.57.14-2.57.14-2.57.14-2.57.14-2.57.14h0Z"/>
      <polygon id="_201517480" data-name=" 201517480" class="cls-4" points="727.26 794.54 764.01 794.54 729.17 825.8 706.07 826.03 727.26 794.54"/>
    </g>
  </g>
</svg>